# xmcd
#
# Track frame offsets:
#	150
#	15092
#	28930
#	40500
#	54672
#	67242
#	76060
#	90480
#	104067
#	114665
#	128635
#	140987
#	151195
#	169285
#	184492
#	197797
#	209770
#	225955
#	239755
#	249512
#	261647
#	272952
#	285237
#
# Disc length: 3965
#
# Revision: 2
# Processed by: cddbd v1.5.1PL0 Copyright (c) Steve Scherf et al.
# Submitted via: audiograbber 1.83.01
# Normalized: r1:DSETVAR2
#
DISCID=570f7b17
DTITLE=Various Artist - Country Sings Elvis
DYEAR=2002
DGENRE=Country
TTITLE0=Glen Campbell - Your Cheatin' Heart
TTITLE1=Willie Nelson - Funnie How Time Slips Away
TTITLE2=Slim Whitman - A Fool Such As I
TTITLE3=Wanda Jackson - Just Call Me Lonesome
TTITLE4=Bobbie Gentry - In The Ghetto
TTITLE5=Jordanaires - Don't Be Cruel
TTITLE6=Billie Jo Spears And Del Reeves - Suspicious Minds
TTITLE7=Olivia Newton John - Let Me Be There
TTITLE8=Don Mclean - Crying In The Chapel
TTITLE9=Ferlin Husky - I'm So Lonesome I Could Cry
TTITLE10=Ronnie Hawkins - Blue Moon Of Kentucky
TTITLE11=Warren Smith - I Can't Stop Loving You
TTITLE12=Wynn Stewart - For The Good Times
TTITLE13=Highwaymen - True Love Travels On A Gravel Road
TTITLE14=Glen Campbell and Tennessee Ernie Ford - There Goes My Every Thing
TTITLE15=George Jones - Peace In The Valley
TTITLE16=Billie Jo Spears - Always On My Mind
TTITLE17=Jean Sheppard - It Keeps Right On A Hurtin'
TTITLE18=Jim and Jesse - The Promised Land
TTITLE19=Roy Rogers - He'll Have To Go
TTITLE20=Glen Campbell - Tomorrow Never Comes
TTITLE21=Johnny Darrell - Green Green Grass Of Home
TTITLE22=Leib Payne - I Love You Because
EXTD=
EXTT0=
EXTT1=
EXTT2=
EXTT3=
EXTT4=
EXTT5=
EXTT6=
EXTT7=
EXTT8=
EXTT9=
EXTT10=
EXTT11=
EXTT12=
EXTT13=
EXTT14=
EXTT15=
EXTT16=
EXTT17=
EXTT18=
EXTT19=
EXTT20=
EXTT21=
EXTT22=
PLAYORDER=
